<?xml version="1.0" encoding="UTF-8" standalone="no"?>
<svg
   xmlns:dc="http://purl.org/dc/elements/1.1/"
   xmlns:cc="http://creativecommons.org/ns#"
   xmlns:rdf="http://www.w3.org/1999/02/22-rdf-syntax-ns#"
   xmlns:svg="http://www.w3.org/2000/svg"
   xmlns="http://www.w3.org/2000/svg"
   xmlns:sodipodi="http://sodipodi.sourceforge.net/DTD/sodipodi-0.dtd"
   xmlns:inkscape="http://www.inkscape.org/namespaces/inkscape"
   width="31.999619"
   height="31.999998"
   viewBox="0 0 31.999619 31.999998"
   version="1.1"
   xml:space="preserve"
   style="clip-rule:evenodd;fill-rule:evenodd;stroke-linejoin:round;stroke-miterlimit:1.41420996"
   id="svg3774"
   sodipodi:docname="cc2.svg"
   inkscape:version="0.92.2 (5c3e80d, 2017-08-06)"><metadata
     id="metadata3778"><rdf:RDF><cc:Work
         rdf:about=""><dc:format>image/svg+xml</dc:format><dc:type
           rdf:resource="http://purl.org/dc/dcmitype/StillImage" /><dc:title></dc:title></cc:Work></rdf:RDF></metadata><sodipodi:namedview
     pagecolor="#ffffff"
     bordercolor="#666666"
     borderopacity="1"
     objecttolerance="10"
     gridtolerance="10"
     guidetolerance="10"
     inkscape:pageopacity="0"
     inkscape:pageshadow="2"
     inkscape:window-width="1918"
     inkscape:window-height="1053"
     id="namedview3776"
     showgrid="false"
     inkscape:zoom="1.7258772"
     inkscape:cx="-144.57913"
     inkscape:cy="-38.953008"
     inkscape:window-x="0"
     inkscape:window-y="25"
     inkscape:window-maximized="0"
     inkscape:current-layer="svg3774"
     units="px" /><g
     id="g3765"
     inkscape:export-xdpi="6.7531285"
     inkscape:export-ydpi="6.7531285"
     transform="matrix(0.07027035,0,0,0.07034509,-0.04253394,-0.03608408)"><path
       d="m 191.75,4.48 c 15.18,-3.19 30.73,-4.21 46.23,-3.92 9.7,-0.15 19.34,1.01 28.89,2.61 18.58,2.55 36.47,8.46 53.94,15.08 12.69,5.67 26.02,11.03 36.32,20.64 2.89,2.1 1.33,6.29 -1.21,7.93 -5.92,3.79 -13.01,4.89 -19.75,6.37 -30.39,5.22 -61.33,7.56 -91.17,15.66 -13.39,3.04 -26.26,7.92 -38.99,12.98 -23.67,10.59 -45.43,26.14 -61.17,46.93 -3,4.41 -5.93,8.86 -8.7,13.42 -2.49,4.87 -5.02,9.72 -7.05,14.81 -1.51,3.64 -2.93,7.31 -4.25,11.02 -2.69,7.87 -4.01,16.08 -5.99,24.14 -0.63,5.29 -0.98,10.63 -2.08,15.86 -0.72,11.99 -0.37,24.01 -0.28,36.01 -0.02,4.01 1.08,7.92 1.14,11.93 0.03,3.7 0.6,7.37 1.57,10.94 1.91,10.04 4.22,20.12 8.46,29.48 5.5,13.26 14.07,25.69 26.26,33.59 10.12,7.52 22.62,10.72 34.88,12.62 16.38,2.13 32.97,0.18 49.12,-2.75 8.45,-1.53 16.83,-3.44 25.14,-5.66 5.29,-1.48 10.71,-2.46 15.92,-4.23 1.99,-0.38 4.03,-0.5 6.06,-0.57 -6.52,5.81 -13.09,11.61 -20.49,16.3 -25.16,16.23 -54.43,24.68 -83.62,30.14 -13.21,2.7 -26.63,4.3 -39.92,6.59 -15.14,2.19 -30.82,4 -44.47,11.41 -4.09,2.87 -7.23,6.75 -10.08,10.79 -0.86,1.74 -2.46,0.05 -3.42,-0.64 -3.12,-3.55 -7.1,-6.17 -10.46,-9.45 C 69,391.04 65.45,387.54 62.05,383.9 56.5,377.45 50.81,371.09 45.92,364.13 36.17,350.93 27.54,336.77 21.21,321.61 c -0.28,-0.12 -0.82,-0.36 -1.1,-0.49 -0.79,-4.35 -3.02,-8.21 -4.48,-12.34 C 12.28,299.69 9.21,290.46 7.2,280.97 6.36,278.08 5.72,275.13 5.25,272.16 4.16,268.84 3.67,265.36 3.41,261.9 1.55,253.71 1.91,245.27 0.72,237 0.76,230.1 0.26,223.15 1.08,216.28 2.01,210.57 1.63,204.72 2.81,199.02 3.97,194.41 3.74,189.56 5.2,185 c 1.42,-8.11 3.49,-16.09 5.97,-23.94 0.63,-2.02 1.27,-4.04 1.96,-6.03 1.37,-3.57 2.61,-7.19 3.89,-10.8 0.78,-1.63 1.37,-3.35 1.9,-5.08 0.27,-0.28 0.8,-0.84 1.07,-1.12 1.19,-3.59 2.82,-7.01 4.7,-10.29 1.68,-3.42 3.41,-6.82 5.34,-10.11 0.22,-0.38 0.65,-1.14 0.86,-1.53 0.64,-1.36 1.36,-2.68 2.13,-3.97 C 45.07,93.33 59,75.52 75.9,60.83 96.74,42.17 121.01,27.39 146.95,17.05 161.42,11.39 176.42,7.09 191.75,4.48 Z"
       style="fill:url(#_Linear1);fill-rule:nonzero"
       id="path3761"
       inkscape:connector-curvature="0" /><path
       d="m 366.04,64.06 c 4.17,-2.43 7.06,-6.38 9.95,-10.13 26.84,22.75 47.95,52.04 61.72,84.38 18.59,43.52 23.24,92.89 12.83,139.07 -8.06,36.55 -25.28,71.06 -49.82,99.32 -35.02,41.08 -85.22,69.03 -138.76,76.41 -24.61,3.62 -49.71,2.66 -74.29,-0.71 -18.81,-2.82 -37.36,-7.66 -54.78,-15.34 -9.52,-4.19 -19.02,-9.09 -26.44,-16.52 -1.92,-1.67 -3.13,-4.45 -1.87,-6.88 1.92,-2.94 5.35,-4.41 8.56,-5.46 9.25,-2.68 18.76,-4.22 28.26,-5.69 17.17,-2.95 34.52,-4.91 51.55,-8.67 28.32,-6.11 56.64,-14.78 81.14,-30.67 16.62,-10.6 31.3,-24.44 42.09,-40.99 15.5,-23.38 22.66,-51.39 24.37,-79.16 0.86,-20.66 0.39,-41.51 -3.94,-61.8 -3.95,-17.52 -10.86,-35.17 -23.94,-47.93 -10.04,-10.26 -23.6,-16.65 -37.66,-19.09 -23.32,-4.35 -47.14,-0.14 -69.98,4.97 -10.7,2.53 -21.25,5.72 -32.06,7.79 15.38,-14.48 34.22,-24.84 54.03,-31.92 11.36,-4.21 23.17,-6.97 34.93,-9.76 25.74,-5.79 52.08,-8.04 78.05,-12.46 8.98,-1.88 18.23,-3.72 26.06,-8.76 z"
       style="fill:#36b0f3;fill-rule:nonzero"
       id="path3763"
       inkscape:connector-curvature="0" /></g><defs
     id="defs3772"><linearGradient
       id="_Linear1"
       x1="0"
       y1="0"
       x2="1"
       y2="0"
       gradientUnits="userSpaceOnUse"
       gradientTransform="matrix(358.082,0,0,404.849,0.60529,202.937)"><stop
         offset="0"
         style="stop-color:rgb(255,244,0);stop-opacity:1"
         id="stop3767" /><stop
         offset="1"
         style="stop-color:rgb(255,159,0);stop-opacity:1"
         id="stop3769" /></linearGradient></defs></svg>