<?xml version="1.0" encoding="UTF-8" standalone="no"?>
<!DOCTYPE svg PUBLIC "-//W3C//DTD SVG 1.1//EN" "http://www.w3.org/Graphics/SVG/1.1/DTD/svg11.dtd">
<svg width="100%" height="100%" viewBox="0 0 456 456" version="1.1" xmlns="http://www.w3.org/2000/svg" xmlns:xlink="http://www.w3.org/1999/xlink" xml:space="preserve" xmlns:serif="http://www.serif.com/" style="fill-rule:evenodd;clip-rule:evenodd;stroke-linejoin:round;stroke-miterlimit:1.41421;">
    <g>
        <path d="M191.75,4.48C206.93,1.29 222.48,0.27 237.98,0.56C247.68,0.41 257.32,1.57 266.87,3.17C285.45,5.72 303.34,11.63 320.81,18.25C333.5,23.92 346.83,29.28 357.13,38.89C360.02,40.99 358.46,45.18 355.92,46.82C350,50.61 342.91,51.71 336.17,53.19C305.78,58.41 274.84,60.75 245,68.85C231.61,71.89 218.74,76.77 206.01,81.83C182.34,92.42 160.58,107.97 144.84,128.76C141.84,133.17 138.91,137.62 136.14,142.18C133.65,147.05 131.12,151.9 129.09,156.99C127.58,160.63 126.16,164.3 124.84,168.01C122.15,175.88 120.83,184.09 118.85,192.15C118.22,197.44 117.87,202.78 116.77,208.01C116.05,220 116.4,232.02 116.49,244.02C116.47,248.03 117.57,251.94 117.63,255.95C117.66,259.65 118.23,263.32 119.2,266.89C121.11,276.93 123.42,287.01 127.66,296.37C133.16,309.63 141.73,322.06 153.92,329.96C164.04,337.48 176.54,340.68 188.8,342.58C205.18,344.71 221.77,342.76 237.92,339.83C246.37,338.3 254.75,336.39 263.06,334.17C268.35,332.69 273.77,331.71 278.98,329.94C280.97,329.56 283.01,329.44 285.04,329.37C278.52,335.18 271.95,340.98 264.55,345.67C239.39,361.9 210.12,370.35 180.93,375.81C167.72,378.51 154.3,380.11 141.01,382.4C125.87,384.59 110.19,386.4 96.54,393.81C92.45,396.68 89.31,400.56 86.46,404.6C85.6,406.34 84,404.65 83.04,403.96C79.92,400.41 75.94,397.79 72.58,394.51C69,391.04 65.45,387.54 62.05,383.9C56.5,377.45 50.81,371.09 45.92,364.13C36.17,350.93 27.54,336.77 21.21,321.61C20.93,321.49 20.39,321.25 20.11,321.12C19.32,316.77 17.09,312.91 15.63,308.78C12.28,299.69 9.21,290.46 7.2,280.97C6.36,278.08 5.72,275.13 5.25,272.16C4.16,268.84 3.67,265.36 3.41,261.9C1.55,253.71 1.91,245.27 0.72,237C0.76,230.1 0.26,223.15 1.08,216.28C2.01,210.57 1.63,204.72 2.81,199.02C3.97,194.41 3.74,189.56 5.2,185C6.62,176.89 8.69,168.91 11.17,161.06C11.8,159.04 12.44,157.02 13.13,155.03C14.5,151.46 15.74,147.84 17.02,144.23C17.8,142.6 18.39,140.88 18.92,139.15C19.19,138.87 19.72,138.31 19.99,138.03C21.18,134.44 22.81,131.02 24.69,127.74C26.37,124.32 28.1,120.92 30.03,117.63C30.25,117.25 30.68,116.49 30.89,116.1C31.53,114.74 32.25,113.42 33.02,112.13C45.07,93.33 59,75.52 75.9,60.83C96.74,42.17 121.01,27.39 146.95,17.05C161.42,11.39 176.42,7.09 191.75,4.48Z" style="fill:url(#_Linear1);fill-rule:nonzero;"/>
        <path d="M366.04,64.06C370.21,61.63 373.1,57.68 375.99,53.93C402.83,76.68 423.94,105.97 437.71,138.31C456.3,181.83 460.95,231.2 450.54,277.38C442.48,313.93 425.26,348.44 400.72,376.7C365.7,417.78 315.5,445.73 261.96,453.11C237.35,456.73 212.25,455.77 187.67,452.4C168.86,449.58 150.31,444.74 132.89,437.06C123.37,432.87 113.87,427.97 106.45,420.54C104.53,418.87 103.32,416.09 104.58,413.66C106.5,410.72 109.93,409.25 113.14,408.2C122.39,405.52 131.9,403.98 141.4,402.51C158.57,399.56 175.92,397.6 192.95,393.84C221.27,387.73 249.59,379.06 274.09,363.17C290.71,352.57 305.39,338.73 316.18,322.18C331.68,298.8 338.84,270.79 340.55,243.02C341.41,222.36 340.94,201.51 336.61,181.22C332.66,163.7 325.75,146.05 312.67,133.29C302.63,123.03 289.07,116.64 275.01,114.2C251.69,109.85 227.87,114.06 205.03,119.17C194.33,121.7 183.78,124.89 172.97,126.96C188.35,112.48 207.19,102.12 227,95.04C238.36,90.83 250.17,88.07 261.93,85.28C287.67,79.49 314.01,77.24 339.98,72.82C348.96,70.94 358.21,69.1 366.04,64.06Z" style="fill:rgb(54,176,243);fill-rule:nonzero;"/>
    </g>
    <defs>
        <linearGradient id="_Linear1" x1="0" y1="0" x2="1" y2="0" gradientUnits="userSpaceOnUse" gradientTransform="matrix(358.082,0,0,404.849,0.60529,202.937)"><stop offset="0" style="stop-color:rgb(255,244,0);stop-opacity:1"/><stop offset="1" style="stop-color:rgb(255,159,0);stop-opacity:1"/></linearGradient>
    </defs>
</svg>
